# xmcd
#
# Track frame offsets:
#	150
#	15007
#	28267
#	40270
#	54617
#	70770
#	84947
#	107075
#	128525
#	141125
#	155950
#	171995
#	185190
#	197095
#	210817
#	223732
#	240695
#	255957
#	270565
#	280417
#
# Disc length: 3932 seconds
#
# Revision: 4
# Processed by: cddbd v1.5.2PL0 Copyright (c) Steve Scherf et al.
# Submitted via: EZCDAudioConverter 3.1.5.1
#
DISCID=1d0f5a14
DTITLE=Compact Disk Club - Τα Τραγούδια Μας CD2
DYEAR=1996
DGENRE=laika
TTITLE0=Βίκυ Μοσχολιού	 - Πρέπει
TTITLE1=Γιώργος Ζαμπέτας	 - Χίλια Περιστέρια
TTITLE2=Δούκισσα	 - Που Πας Χωρίς Αγάπη
TTITLE3=Φίλιππος Νικολάου	 - Όταν
TTITLE4=Χριστιάνα	 - Τα Μάτια Σου
TTITLE5=Μαρινέλλα	 - Έχεις Λίγα Χρόνια Έχεις
TTITLE6=Κώστας Χατζής	 - Δε Βαριέσαι Αδερφέ
TTITLE7=Διονύσης Σαββόπουλος	 - Το Περιβόλι
TTITLE8=Μαρινέλλα	 - Δεν Είναι Που Φεύγεις
TTITLE9=Δήμος Μούτσης	 - Μη Το Ψάχνεις...Δεν Πειράζει
TTITLE10=Τάνια Τσανακλίδου	 - Ο Ανθρωπάκος
TTITLE11=Τόλης Βοσκόπουλος	 - Αγωνία
TTITLE12=Δημήτρης Μητροπάνος - Χριστιάνα	 - Τα Κύθηρα Ποτέ Δεν Θα Τα Βρούμε
TTITLE13=Δώρα Μόραλη	 - Μια Φορά Θυμάμαι
TTITLE14=Κώστας Χατζής	 - Η Θεία Μας Η Κατίνα
TTITLE15=Τάνια Τσανακλίδου	 - Κάθε Φορά Που Θα 'ρθεις Βρέχει
TTITLE16=Αντώνης Καλογιάννης	 - Στόμα Γλυκό Μου Στόμα
TTITLE17=Μαρινέλλα	 - Ποτέ Να Μη Χαθείς Απ' Τη Ζωή Μου
TTITLE18=Δούκισσα	 - Τα Παλικάρια
TTITLE19=Τόλης Βοσκόπουλος - Οι Αναμνήσεις
EXTD=
EXTT0=
EXTT1=
EXTT2=
EXTT3=
EXTT4=
EXTT5=
EXTT6=
EXTT7=
EXTT8=
EXTT9=
EXTT10=
EXTT11=
EXTT12=
EXTT13=
EXTT14=
EXTT15=
EXTT16=
EXTT17=
EXTT18=
EXTT19=
PLAYORDER=
